<svg width="76" height="63" viewBox="0 0 76 63" fill="none" xmlns="http://www.w3.org/2000/svg">
<path d="M75.9702 15.6262L68.9478 60.6691C68.9352 60.7198 68.9352 60.7705 68.9226 60.8086C68.9101 60.8466 68.9101 60.8847 68.8975 60.9227C68.885 60.9861 68.8598 61.0495 68.8347 61.1129C68.8222 61.151 68.8096 61.189 68.797 61.2144C68.7868 61.2452 68.7684 61.276 68.7551 61.3068C68.749 61.321 68.7481 61.3351 68.739 61.3475V61.3475C68.7297 61.3599 68.7182 61.3737 68.7105 61.3871C68.6975 61.4098 68.6809 61.4362 68.6714 61.4553C68.6463 61.506 68.6086 61.5441 68.5835 61.5948V61.5948C68.5435 61.6554 68.4999 61.7136 68.4524 61.7685C68.3944 61.8353 68.3319 61.8958 68.2694 61.9499C68.2568 61.9626 68.2317 61.9879 68.2192 62.0006C68.1946 62.0254 68.17 62.0448 68.1454 62.0623C68.1196 62.0808 68.0937 62.1038 68.0667 62.1206V62.1206C68.042 62.1358 68.0193 62.1492 67.9951 62.1652C67.9573 62.1902 67.9213 62.2095 67.8925 62.2289C67.8692 62.2446 67.8507 62.2554 67.831 62.2644C67.8057 62.276 67.7775 62.287 67.753 62.3002V62.3002C67.6886 62.3349 67.6166 62.3383 67.5441 62.3288C63.9171 61.8549 60.3569 60.7993 57.0023 59.1578C54.1322 57.7534 52.5437 54.7794 51.7246 51.6909V51.6909C50.3214 46.4155 47.7497 41.5388 44.3425 37.5516C42.8473 35.8019 42.0923 33.5249 42.1393 31.2238V31.2238C42.1514 30.4096 42.1259 29.5926 42.0616 28.7782C42.0008 28.0087 40.9667 27.878 40.6067 28.5608V28.5608V28.5608C40.1192 29.4923 38.5291 28.8941 38.4019 27.8504C38.3242 27.2138 38.1967 26.582 38.0188 25.9612V25.9612C37.807 25.1995 36.7981 25.2709 36.5306 26.0148C36.2185 26.8826 35.8575 27.7376 35.4435 28.5735C34.9913 29.4865 34.4762 30.3742 33.9109 31.2365V31.2365C33.8363 31.3369 33.7231 31.398 33.598 31.3951C30.4469 31.3234 27.2643 32.4921 24.8407 34.9013C20.1172 39.6059 20.1549 47.0243 24.3131 51.7163V51.7163C25.4319 52.9819 25.6201 55.002 24.2635 56.0085C23.9684 56.2274 23.6709 56.4411 23.3709 56.6492C18.8409 59.7733 13.7283 61.671 8.48869 62.3548C8.42036 62.3637 8.34615 62.3538 8.28336 62.3254V62.3254C8.25523 62.3126 8.2304 62.3005 8.20388 62.2847C8.19609 62.28 8.18844 62.2753 8.18056 62.2707C8.15796 62.2578 8.13328 62.2486 8.11095 62.2352C8.07265 62.2122 8.03606 62.185 8.00696 62.1655C7.98184 62.1528 7.95671 62.1274 7.93159 62.1147C7.91262 62.102 7.89364 62.086 7.87467 62.07C7.83833 62.0395 7.80169 62.009 7.76828 61.9752V61.9752C7.68034 61.8992 7.5924 61.7977 7.51702 61.7089V61.7089C7.46615 61.6576 7.42616 61.5947 7.39192 61.531C7.38306 61.5146 7.37467 61.4976 7.36627 61.4807C7.3574 61.4628 7.34224 61.4385 7.32968 61.4169C7.32023 61.4006 7.30989 61.385 7.30114 61.3683V61.3683C7.29578 61.3581 7.28755 61.3491 7.28175 61.3391C7.26252 61.306 7.25159 61.2729 7.24065 61.2397C7.22809 61.2017 7.21552 61.1763 7.20296 61.1383C7.17784 61.0749 7.15271 61.0115 7.14015 60.9481C7.13695 60.9384 7.13374 60.9287 7.13075 60.919C7.11374 60.8639 7.10489 60.8062 7.09488 60.7495V60.7495C7.08847 60.7132 7.08703 60.6762 7.08133 60.6397L0.0297591 15.6262C-0.296867 13.5718 2.14026 12.253 3.66033 13.6733L18.0444 27.0644C19.062 28.0155 20.6951 27.7746 21.3986 26.5572L36.1219 1.09374C36.9636 -0.364579 39.049 -0.364579 39.8781 1.09374L54.6014 26.5445C55.3049 27.7619 56.938 28.0028 57.9556 27.0518L72.3397 13.6606C73.8597 12.253 76.2969 13.5592 75.9702 15.6262Z" fill="white"/>
</svg>
